<mxfile host="app.diagrams.net" modified="2022-08-18T02:23:10.549Z" agent="5.0 (Macintosh; Intel Mac OS X 10_15_7) AppleWebKit/537.36 (KHTML, like Gecko) Chrome/104.0.0.0 Safari/537.36" etag="3LDJ4_brDZYD_m1AqwK6" version="20.2.4" type="github">
  <diagram id="C5RBs43oDa-KdzZeNtuy" name="Page-1">
    <mxGraphModel dx="946" dy="525" grid="1" gridSize="10" guides="1" tooltips="1" connect="1" arrows="1" fold="1" page="1" pageScale="1" pageWidth="827" pageHeight="1169" math="0" shadow="0">
      <root>
        <mxCell id="WIyWlLk6GJQsqaUBKTNV-0" />
        <mxCell id="WIyWlLk6GJQsqaUBKTNV-1" parent="WIyWlLk6GJQsqaUBKTNV-0" />
        <mxCell id="_sI8reu0_ldh49B5_y5q-12" style="edgeStyle=orthogonalEdgeStyle;rounded=0;orthogonalLoop=1;jettySize=auto;html=1;" edge="1" parent="WIyWlLk6GJQsqaUBKTNV-1" source="_sI8reu0_ldh49B5_y5q-0" target="_sI8reu0_ldh49B5_y5q-4">
          <mxGeometry relative="1" as="geometry" />
        </mxCell>
        <mxCell id="_sI8reu0_ldh49B5_y5q-14" style="edgeStyle=orthogonalEdgeStyle;rounded=0;orthogonalLoop=1;jettySize=auto;html=1;entryX=1;entryY=0.5;entryDx=0;entryDy=0;" edge="1" parent="WIyWlLk6GJQsqaUBKTNV-1" source="_sI8reu0_ldh49B5_y5q-0" target="_sI8reu0_ldh49B5_y5q-3">
          <mxGeometry relative="1" as="geometry" />
        </mxCell>
        <mxCell id="_sI8reu0_ldh49B5_y5q-19" style="edgeStyle=orthogonalEdgeStyle;rounded=0;orthogonalLoop=1;jettySize=auto;html=1;entryX=0;entryY=0.5;entryDx=0;entryDy=0;" edge="1" parent="WIyWlLk6GJQsqaUBKTNV-1" source="_sI8reu0_ldh49B5_y5q-0" target="_sI8reu0_ldh49B5_y5q-18">
          <mxGeometry relative="1" as="geometry" />
        </mxCell>
        <mxCell id="_sI8reu0_ldh49B5_y5q-0" value="Fact Order" style="rounded=1;whiteSpace=wrap;html=1;fillColor=#dae8fc;strokeColor=#6c8ebf;" vertex="1" parent="WIyWlLk6GJQsqaUBKTNV-1">
          <mxGeometry x="354" y="100" width="120" height="50" as="geometry" />
        </mxCell>
        <mxCell id="_sI8reu0_ldh49B5_y5q-1" value="Customer" style="rounded=1;whiteSpace=wrap;html=1;fillColor=#fff2cc;strokeColor=#d6b656;" vertex="1" parent="WIyWlLk6GJQsqaUBKTNV-1">
          <mxGeometry x="200" y="50" width="120" height="40" as="geometry" />
        </mxCell>
        <mxCell id="_sI8reu0_ldh49B5_y5q-2" value="State Province" style="rounded=1;whiteSpace=wrap;html=1;fillColor=#fff2cc;strokeColor=#d6b656;" vertex="1" parent="WIyWlLk6GJQsqaUBKTNV-1">
          <mxGeometry x="440" y="10" width="120" height="40" as="geometry" />
        </mxCell>
        <mxCell id="_sI8reu0_ldh49B5_y5q-16" style="edgeStyle=orthogonalEdgeStyle;rounded=0;orthogonalLoop=1;jettySize=auto;html=1;entryX=1;entryY=0.5;entryDx=0;entryDy=0;" edge="1" parent="WIyWlLk6GJQsqaUBKTNV-1" source="_sI8reu0_ldh49B5_y5q-3" target="_sI8reu0_ldh49B5_y5q-15">
          <mxGeometry relative="1" as="geometry" />
        </mxCell>
        <mxCell id="_sI8reu0_ldh49B5_y5q-3" value="Sales Order Header Sales Reason" style="rounded=1;whiteSpace=wrap;html=1;fillColor=#fff2cc;strokeColor=#d6b656;" vertex="1" parent="WIyWlLk6GJQsqaUBKTNV-1">
          <mxGeometry x="180" y="160" width="120" height="40" as="geometry" />
        </mxCell>
        <mxCell id="_sI8reu0_ldh49B5_y5q-4" value="Product" style="rounded=1;whiteSpace=wrap;html=1;fillColor=#fff2cc;strokeColor=#d6b656;" vertex="1" parent="WIyWlLk6GJQsqaUBKTNV-1">
          <mxGeometry x="650" y="70" width="120" height="40" as="geometry" />
        </mxCell>
        <mxCell id="_sI8reu0_ldh49B5_y5q-5" value="Person" style="rounded=1;whiteSpace=wrap;html=1;fillColor=#fff2cc;strokeColor=#d6b656;" vertex="1" parent="WIyWlLk6GJQsqaUBKTNV-1">
          <mxGeometry x="440" y="450" width="120" height="40" as="geometry" />
        </mxCell>
        <mxCell id="_sI8reu0_ldh49B5_y5q-17" style="edgeStyle=orthogonalEdgeStyle;rounded=0;orthogonalLoop=1;jettySize=auto;html=1;entryX=1;entryY=0.75;entryDx=0;entryDy=0;" edge="1" parent="WIyWlLk6GJQsqaUBKTNV-1" source="_sI8reu0_ldh49B5_y5q-6" target="_sI8reu0_ldh49B5_y5q-3">
          <mxGeometry relative="1" as="geometry" />
        </mxCell>
        <mxCell id="_sI8reu0_ldh49B5_y5q-6" value="Fact Sales" style="rounded=1;whiteSpace=wrap;html=1;fillColor=#dae8fc;strokeColor=#6c8ebf;" vertex="1" parent="WIyWlLk6GJQsqaUBKTNV-1">
          <mxGeometry x="270" y="350" width="120" height="50" as="geometry" />
        </mxCell>
        <mxCell id="_sI8reu0_ldh49B5_y5q-7" value="Adress" style="rounded=1;whiteSpace=wrap;html=1;fillColor=#fff2cc;strokeColor=#d6b656;" vertex="1" parent="WIyWlLk6GJQsqaUBKTNV-1">
          <mxGeometry x="120" y="435" width="120" height="40" as="geometry" />
        </mxCell>
        <mxCell id="_sI8reu0_ldh49B5_y5q-8" value="Country Region" style="rounded=1;whiteSpace=wrap;html=1;fillColor=#fff2cc;strokeColor=#d6b656;" vertex="1" parent="WIyWlLk6GJQsqaUBKTNV-1">
          <mxGeometry x="460" y="310" width="120" height="40" as="geometry" />
        </mxCell>
        <mxCell id="_sI8reu0_ldh49B5_y5q-10" style="edgeStyle=orthogonalEdgeStyle;rounded=0;orthogonalLoop=1;jettySize=auto;html=1;exitX=0.5;exitY=1;exitDx=0;exitDy=0;" edge="1" parent="WIyWlLk6GJQsqaUBKTNV-1" source="_sI8reu0_ldh49B5_y5q-2" target="_sI8reu0_ldh49B5_y5q-2">
          <mxGeometry relative="1" as="geometry" />
        </mxCell>
        <mxCell id="_sI8reu0_ldh49B5_y5q-15" value="Sales Reason" style="rounded=1;whiteSpace=wrap;html=1;fillColor=#fff2cc;strokeColor=#d6b656;" vertex="1" parent="WIyWlLk6GJQsqaUBKTNV-1">
          <mxGeometry x="20" y="250" width="120" height="40" as="geometry" />
        </mxCell>
        <mxCell id="_sI8reu0_ldh49B5_y5q-18" value="Credit Card" style="rounded=1;whiteSpace=wrap;html=1;fillColor=#fff2cc;strokeColor=#d6b656;" vertex="1" parent="WIyWlLk6GJQsqaUBKTNV-1">
          <mxGeometry x="590" y="160" width="120" height="40" as="geometry" />
        </mxCell>
      </root>
    </mxGraphModel>
  </diagram>
</mxfile>
